<svg version="1.1" id="Layer_1" xmlns="http://www.w3.org/2000/svg" xmlns:xlink="http://www.w3.org/1999/xlink" viewBox="0 0 479.911 479.911" xml:space="preserve" fill="#000000"><g id="SVGRepo_bgCarrier" stroke-width="0"></g><g id="SVGRepo_tracerCarrier" stroke-linecap="round" stroke-linejoin="round"></g><g id="SVGRepo_iconCarrier"> <path style="fill:#DF5349;" d="M377.831,96.438c40.08,40.16,40.08,105.2,0,145.36l-169.52,169.44l-0.4-0.4l-0.4,0.4l-169.52-169.44 c-40.08-40.16-40.08-105.2,0-145.36c40.16-40.08,105.2-40.08,145.28,0l24.64,24.64l24.64-24.64 C272.631,56.358,337.671,56.358,377.831,96.438z"></path> <path d="M383.495,90.79c-0.008-0.008-0.008-0.008-0.016-0.016c-43.216-43.128-113.464-43.12-156.584,0.008l-18.984,18.984 l-18.984-18.984c-43.128-43.128-113.376-43.136-156.6,0.008c-43.104,43.184-43.104,113.464,0.008,156.664l169.52,169.44 c1.232,1.232,2.824,1.912,4.496,2.104c0.64,0.168,1.304,0.24,1.96,0.24c2.048,0,4.096-0.784,5.656-2.344l169.528-169.448 C426.599,204.255,426.599,133.975,383.495,90.79z M372.175,236.143L207.911,400.319L43.655,236.15 c-36.888-36.968-36.888-97.104-0.008-134.048c18.488-18.456,42.76-27.68,67.016-27.68s48.504,9.224,66.952,27.672l19.296,19.296 l-33.056,36.928c-2.944,3.288-2.664,8.352,0.624,11.296c1.528,1.368,3.432,2.04,5.336,2.04c2.2,0,4.384-0.896,5.968-2.664 l38.096-42.56l24.336-24.336c36.88-36.88,96.984-36.888,133.96-0.008C409.055,139.046,409.055,199.182,372.175,236.143z"></path> <path d="M146.871,196.118c-2.16-2.24-5.76-2.96-8.72-1.768c-0.96,0.408-1.84,0.96-2.56,1.768c-0.72,0.72-1.36,1.6-1.76,2.552 c-0.4,0.96-0.56,2-0.56,3.048c0,1.12,0.16,2.16,0.56,3.12c0.4,0.96,1.04,1.832,1.76,2.56c1.52,1.512,3.52,2.32,5.68,2.32 c1.04,0,2.08-0.168,3.04-0.56s1.84-0.96,2.56-1.76c0.8-0.728,1.36-1.6,1.76-2.56s0.64-2,0.64-3.12c0-1.048-0.24-2.088-0.64-3.048 C148.231,197.719,147.671,196.839,146.871,196.118z"></path> <circle style="fill:#F79E4C;" cx="351.911" cy="293.479" r="120"></circle> <circle style="fill:#FDECDB;" cx="351.911" cy="293.479" r="88"></circle> <rect x="327.911" y="141.479" style="fill:#F79E4C;" width="40" height="32"></rect> <path d="M435.335,196.607l5.584-6.344c2.912-3.312,2.592-8.368-0.728-11.288c-3.304-2.904-8.352-2.592-11.288,0.728l-6.304,7.168 c-13.904-9.248-29.704-15.816-46.688-19.048v-18.344h8c4.424,0,8-3.576,8-8s-3.576-8-8-8h-16h-40h-16c-4.424,0-8,3.576-8,8 s3.576,8,8,8h8v20.216c-13.688,3.544-26.512,9.216-38.032,16.776l-5.96-6.768c-2.928-3.336-7.984-3.632-11.288-0.728 c-3.32,2.92-3.64,7.976-0.728,11.288l5.144,5.84c-27.568,23.496-45.136,58.4-45.136,97.376c0,70.576,57.424,128,128,128 s128-57.424,128-128C479.911,254.774,462.575,220.102,435.335,196.607z M335.911,165.479v-16h24v16H335.911z M351.911,405.479 c-61.76,0-112-50.24-112-112c0-35.976,17.112-67.952,43.552-88.456c0.976-0.328,1.912-0.816,2.728-1.536 c0.384-0.336,0.584-0.776,0.888-1.168c18.32-13.064,40.664-20.84,64.832-20.84c61.76,0,112,50.24,112,112 S413.671,405.479,351.911,405.479z"></path> <path d="M351.911,197.479c-52.936,0-96,43.064-96,96s43.064,96,96,96s96-43.064,96-96S404.847,197.479,351.911,197.479z M351.911,373.479c-44.112,0-80-35.888-80-80s35.888-80,80-80s80,35.888,80,80S396.023,373.479,351.911,373.479z"></path> <path d="M383.911,293.479h-24v-48c0-4.424-3.576-8-8-8s-8,3.576-8,8v56c0,4.424,3.576,8,8,8h32c4.424,0,8-3.576,8-8 S388.335,293.479,383.911,293.479z"></path> </g></svg>